<svg width="112" height="19" viewBox="0 0 112 19" fill="none" xmlns="http://www.w3.org/2000/svg">
<path d="M0 -0.00017716C0.336 1.55767 1.456 3.25715 2.912 3.68201H7.504L7.728 3.82364V18.4108H10.528V3.82364L10.752 3.68201H15.344C16.912 3.11552 17.92 1.55767 18.256 -0.00017716H0ZM87.136 18.4108C88.592 17.7027 89.376 16.2864 89.6 14.7286H76.944V-0.1418H74.144V18.2692H87.136V18.4108ZM52.976 3.68201H63.056C64.512 3.11552 65.856 1.6993 66.08 -0.00017716H50.176V10.9048H63.168V14.7286H52.976C51.408 15.2951 50.064 16.7113 49.392 18.4108H66.08V7.36421H52.976V3.68201ZM95.648 7.36421V18.4108H98.56V11.0464H108.752V18.4108H111.664V7.36421H95.648ZM28.224 3.68201H39.088C40.544 3.25715 41.776 1.55767 42 -0.00017716H25.2C25.648 1.6993 26.768 3.25715 28.224 3.68201ZM28.224 11.0464H39.088C40.544 10.6215 41.776 8.92206 42 7.36421H25.2C25.648 8.92206 26.768 10.6215 28.224 11.0464ZM28.224 18.4108H39.088C40.544 17.9859 41.776 16.2864 42 14.7286H25.2C25.648 16.4281 26.768 18.1275 28.224 18.4108ZM98.224 3.68201H109.088C110.544 3.25715 111.776 1.55767 112 -0.00017716H95.2C95.536 1.6993 96.656 3.39877 98.224 3.68201Z" fill="white"/>
</svg>
