<svg width="22" height="30" viewBox="0 0 22 30" fill="none" xmlns="http://www.w3.org/2000/svg">
<path fill-rule="evenodd" clip-rule="evenodd" d="M18.0626 15.9341C18.0327 12.3281 20.7854 10.5738 20.9113 10.4921C19.3523 8.02736 16.936 7.6906 16.0868 7.66375C14.0574 7.43215 12.0889 8.9806 11.055 8.9806C10.0006 8.9806 8.40863 7.68612 6.69284 7.72416C4.48492 7.76108 2.41937 9.1473 1.28652 11.2999C-1.0514 15.689 0.692239 22.139 2.93215 25.6868C4.05262 27.4254 5.3619 29.3643 7.07562 29.2961C8.7522 29.2223 9.37847 28.137 11.4017 28.137C13.4064 28.137 13.9945 29.2961 15.7422 29.2513C17.5416 29.2223 18.6745 27.5071 19.7557 25.7528C21.0506 23.7635 21.5706 21.8 21.5912 21.6993C21.5499 21.6848 18.0977 20.256 18.0626 15.9341Z" fill="white"/>
<path fill-rule="evenodd" clip-rule="evenodd" d="M14.761 5.33031C15.6627 4.10741 16.2797 2.4437 16.1084 0.755371C14.8033 0.818026 13.1711 1.73436 12.2312 2.9304C11.3996 3.98434 10.6567 5.71183 10.8486 7.33639C12.3147 7.45498 13.82 6.53418 14.761 5.33031Z" fill="white"/>
</svg>
